<?xml version="1.0" encoding="UTF-8"?>
<svg width="61px" height="60px" viewBox="0 0 61 60" version="1.1" xmlns="http://www.w3.org/2000/svg" xmlns:xlink="http://www.w3.org/1999/xlink">
    <!-- Generator: Sketch 52.6 (67491) - http://www.bohemiancoding.com/sketch -->
    <title>after_effects</title>
    <desc>Created with Sketch.</desc>
    <g id="Page-1" stroke="none" stroke-width="1" fill="none" fill-rule="evenodd">
        <g id="Artboard-Copy-12" transform="translate(-935.000000, -1526.000000)">
            <g id="Group-24" transform="translate(305.000000, 1412.000000)">
                <g id="after_effects" transform="translate(630.000000, 114.000000)">
                    <polygon id="Path" fill="#1F0040" points="2.54166667 2.54166667 58.4583333 2.54166667 58.4583333 56.9333333 2.54166667 56.9333333"></polygon>
                    <path d="M0,0 L0,59.475 L61,59.475 L61,0 L0,0 Z M2.54166667,2.54166667 L58.4583333,2.54166667 L58.4583333,56.9333333 L2.54166667,56.9333333 L2.54166667,2.54166667 Z M17.2325,33.6770833 L15.2245833,41.2766667 C15.17375,41.48 15.0975,41.55625 14.8433333,41.55625 L11.1070833,41.55625 C10.8529167,41.55625 10.8020833,41.48 10.8529167,41.175 L18.07125,15.93625 C18.1983333,15.47875 18.2745833,15.1229167 18.3254167,13.8520833 C18.3254167,13.6741667 18.4016667,13.5979167 18.52875,13.5979167 L23.86625,13.5979167 C24.0441667,13.5979167 24.1204167,13.64875 24.17125,13.8520833 L32.25375,41.2258333 C32.3045833,41.4291667 32.25375,41.55625 32.0504167,41.55625 L27.8566667,41.55625 C27.6533333,41.55625 27.52625,41.48 27.4754167,41.3020833 L25.3658333,33.6770833 L17.2325,33.6770833 Z M24.3745833,29.5595833 C23.6629167,26.7383333 21.9345833,20.5875 21.2991667,17.61375 L21.2483333,17.61375 C20.7145833,20.5875 19.3166667,25.62 18.2745833,29.5595833 C18.3,29.5595833 24.3745833,29.5595833 24.3745833,29.5595833 Z M37.9979167,32.1520833 C38.04875,35.5833333 39.6754167,37.89625 43.53875,37.89625 C45.0383333,37.89625 46.3345833,37.6929167 47.6816667,37.1083333 C47.8595833,37.0320833 47.9866667,37.0575 47.9866667,37.28625 L47.9866667,40.4633333 C47.9866667,40.7175 47.9104167,40.8445833 47.7325,40.9716667 C46.3854167,41.6325 44.7079167,41.9375 42.62375,41.9375 C35.91375,41.9375 33.3975,36.98125 33.3975,31.4404167 C33.3975,25.4420833 36.4983333,20.5366667 41.9629167,20.5366667 C47.50375,20.5366667 49.4354167,25.1879167 49.4354167,28.975 C49.4354167,30.195 49.3591667,31.18625 49.2320833,31.6691667 C49.18125,31.8725 49.105,31.94875 48.9016667,31.9995833 C48.3933333,32.0758333 46.89375,32.1775 44.6570833,32.1775 L37.9979167,32.1520833 Z M43.1575,28.6445833 C44.45375,28.6445833 44.91125,28.6445833 45.0383333,28.59375 C45.0383333,28.4158333 45.0891667,28.28875 45.0891667,28.1616667 C45.0891667,26.7891667 44.4283333,24.2475 41.785,24.2475 C39.345,24.2475 38.3029167,26.3825 38.04875,28.6445833 L43.1575,28.6445833 Z" id="Shape" fill="#D291FF" fill-rule="nonzero"></path>
                </g>
            </g>
        </g>
    </g>
</svg>