<?xml version="1.0" encoding="UTF-8"?>
<svg width="26px" height="26px" viewBox="0 0 26 26" version="1.1" xmlns="http://www.w3.org/2000/svg" xmlns:xlink="http://www.w3.org/1999/xlink">
    <!-- Generator: Sketch 49.3 (51167) - http://www.bohemiancoding.com/sketch -->
    <title>linkedin-box</title>
    <desc>Created with Sketch.</desc>
    <defs></defs>
    <g id="Page-1" stroke="none" stroke-width="1" fill="none" fill-rule="evenodd">
        <g id="Artboard" transform="translate(-136.000000, -852.000000)">
            <g id="linkedin-box" transform="translate(136.000000, 852.000000)">
                <rect id="Rectangle-2" fill="#FFFFFF" x="0" y="0" width="26" height="26" rx="3"></rect>
                <path d="M23.1111111,0 C24.7066004,0 26,1.29339961 26,2.88888889 L26,23.1111111 C26,24.7066004 24.7066004,26 23.1111111,26 L2.88888889,26 C1.29339961,26 0,24.7066004 0,23.1111111 L0,2.88888889 C0,1.29339961 1.29339961,0 2.88888889,0 L23.1111111,0 Z M22.3888889,22.3888889 L22.3888889,14.7333334 C22.3888889,12.1326858 20.2806475,10.0244445 17.68,10.0244445 C16.4522222,10.0244445 15.0222222,10.7755555 14.3288889,11.9022222 L14.3288889,10.2988889 L10.2988889,10.2988889 L10.2988889,22.3888889 L14.3288889,22.3888889 L14.3288889,15.2677778 C14.3288889,14.1555555 15.2244445,13.2455555 16.3366666,13.2455555 C17.4535092,13.2455555 18.3588889,14.1509353 18.3588889,15.2677778 L18.3588889,22.3888889 L22.3888889,22.3888889 Z M5.60444445,8.03111112 C6.94465544,8.03111112 8.03111112,6.94465544 8.03111112,5.60444445 C8.03111112,4.26111111 6.94777778,3.16333334 5.60444445,3.16333334 C4.25625601,3.16333334 3.16333334,4.25625601 3.16333334,5.60444445 C3.16333334,6.94777778 4.26111111,8.03111112 5.60444445,8.03111112 Z M7.61222224,22.3888889 L7.61222224,10.2988889 L3.61111111,10.2988889 L3.61111111,22.3888889 L7.61222224,22.3888889 Z" id="Shape" fill="#4A90E2" fill-rule="nonzero"></path>
            </g>
        </g>
    </g>
</svg>