<?xml version="1.0" encoding="UTF-8"?>
<svg width="490px" height="255px" viewBox="0 0 490 255" version="1.1" xmlns="http://www.w3.org/2000/svg" xmlns:xlink="http://www.w3.org/1999/xlink">
    <!-- Generator: Sketch 52.3 (67297) - http://www.bohemiancoding.com/sketch -->
    <title>Group 16</title>
    <desc>Created with Sketch.</desc>
    <g id="Page-1" stroke="none" stroke-width="1" fill="none" fill-rule="evenodd">
        <g id="Artboard-Copy-13" transform="translate(-818.000000, -165.000000)">
            <g id="Group-18" transform="translate(96.000000, 8.000000)">
                <g id="Page-1" transform="translate(716.000000, 0.000000)">
                    <g id="Group-3" transform="translate(6.000000, 156.729000)">
                        <g id="Group-16" transform="translate(0.000000, 0.000000)">
                            <path d="M-0.0001,90.5208 L-0.0001,112.6038 C-0.0001,117.4268 1.6199,119.8598 7.7649,122.5208 C13.9099,125.1818 263.5149,233.2708 292.1819,245.6878 C318.8489,258.1038 326.6819,258.1038 354.0149,245.6878 C378.7179,233.6698 479.9519,184.3958 483.6079,182.5518 C487.2649,180.7078 489.6409,177.9268 489.6409,174.6768 C489.6409,171.4268 489.5989,150.6038 489.5989,150.6038 L-0.0001,90.5208 Z" id="Fill-1" fill="#D4D7D9"></path>
                            <path d="M349.2646,224.6873 C333.5146,233.3543 317.2646,233.8543 299.1816,225.0203 L5.4316,97.6873 C-2.6814,93.7243 -0.7354,86.5203 4.9316,83.4373 L169.7686,1.4813 C171.1046,0.8313 172.6616,0.8113 174.0146,1.4283 L483.4456,142.7933 C491.6706,146.6963 490.9516,154.5833 485.6816,157.4373 L349.2646,224.6873 Z" id="Fill-4" fill="#FFFFFF"></path>
                            <path d="M344.3847,223.7821 C329.5307,231.0621 316.1487,229.7271 300.9737,223.1421 L6.2387,95.2381 C2.2287,93.4871 2.1117,87.8411 6.0467,85.9261 L170.8447,5.7021 C172.1817,5.0521 173.7387,5.0321 175.0917,5.6481 L484.0047,146.4621 C487.8327,148.2061 487.9077,153.6161 484.1317,155.4671 L344.3847,223.7821 Z" id="Fill-7" fill="#ECEFF1"></path>
                            <polygon id="Fill-9" fill="#3F90D2" points="302.2958 219.7704 22.8278 98.6244 186.0068 17.1044 463.0358 140.3744"></polygon>
                            <path d="M427.2968,201.3055 L410.8438,209.4665 C409.3898,210.1875 407.6258,209.5935 406.9038,208.1395 C406.1828,206.6845 406.7768,204.9205 408.2318,204.1995 L424.6838,196.0375 C426.1378,195.3165 427.9018,195.9105 428.6228,197.3655 C429.3448,198.8205 428.7508,200.5835 427.2968,201.3055" id="Fill-34" fill="#BCBEBF"></path>
                        </g>
                    </g>
                </g>
            </g>
        </g>
    </g>
</svg>