<?xml version="1.0" encoding="UTF-8"?>
<svg width="441px" height="202px" viewBox="0 0 441 202" version="1.1" xmlns="http://www.w3.org/2000/svg" xmlns:xlink="http://www.w3.org/1999/xlink">
    <!-- Generator: Sketch 52.3 (67297) - http://www.bohemiancoding.com/sketch -->
    <title>Group 15</title>
    <desc>Created with Sketch.</desc>
    <g id="Page-1" stroke="none" stroke-width="1" fill="none" fill-rule="evenodd">
        <g id="Artboard-Copy-13" transform="translate(-859.000000, -159.000000)">
            <g id="Group-18" transform="translate(96.000000, 8.000000)">
                <g id="Page-1" transform="translate(716.000000, 0.000000)">
                    <g id="Group-15" transform="translate(47.000000, 151.000000)">
                        <polygon id="Fill-11" fill-opacity="0.76" fill="#000000" points="440.4657 122.4183 279.2967 201.4603 0.0567 80.8753 0.0567 79.2293 279.2967 199.774173 440.4657 120.7513"></polygon>
                        <polygon id="Fill-13" fill-opacity="0.9" fill="#474747" points="440.409 120.876 279.242 200.043 0 79.354 159.597 0"></polygon>
                        <g id="Group-19" transform="translate(66.000000, 30.000000)" fill-rule="nonzero">
                            <path d="M75.5,91.5 L197.5,33.5" id="Line-Copy-4" stroke="#FFFC52" stroke-linecap="square"></path>
                            <path d="M2.5,58.5 L124.5,0.5" id="Line-Copy-7" stroke="#FFFC52" stroke-linecap="square"></path>
                            <path d="M32.6,83.2045717 L43.5384219,78" id="Line-Copy-5" stroke="#FFFC52" stroke-linecap="square"></path>
                            <path d="M28.0666667,81.2045717 L39.0050886,76" id="Line-Copy-8" stroke="#FFFC52" stroke-linecap="square"></path>
                            <path d="M23.5333333,79.2045717 L34.4717552,74" id="Line-Copy-9" stroke="#FFFC52" stroke-linecap="square"></path>
                            <path d="M19,77.2045717 L29.9384219,72" id="Line-Copy-10" stroke="#FFFC52" stroke-linecap="square"></path>
                            <path d="M19.8861005,75.4001536 L16.6951953,76.8402461 L33.7328816,84.947328 L36.4890654,83.4534278 L19.8861005,75.4001536 Z" id="Rectangle-5" stroke="#417505" stroke-width="0.5" fill="#7BC62F"></path>
                            <path d="M175.5,137.5 L296.5,81.2045717" id="Line-Copy-6" stroke="#FFFC52" stroke-linecap="square"></path>
                            <path d="M1.5,58.5 L175.5,137.5" id="Line-2" stroke="#FFFC52" stroke-linecap="square"></path>
                            <g id="Group-20" transform="translate(0.000000, 56.000000)">
                                <circle id="Oval-3" fill="#FFFC52" cx="2.5" cy="2.5" r="2.5"></circle>
                                <circle id="Oval-4" fill="#455868" cx="2.5" cy="2.5" r="1.5"></circle>
                            </g>
                            <g id="Group-20-Copy" transform="translate(72.000000, 89.000000)">
                                <circle id="Oval-3" fill="#FFFC52" cx="2.5" cy="2.5" r="2.5"></circle>
                                <circle id="Oval-4" fill="#455868" cx="2.5" cy="2.5" r="1.5"></circle>
                            </g>
                            <g id="Group-20-Copy-2" transform="translate(173.000000, 135.000000)">
                                <circle id="Oval-3" fill="#FFFC52" cx="2.5" cy="2.5" r="2.5"></circle>
                                <circle id="Oval-4" fill="#455868" cx="2.5" cy="2.5" r="1.5"></circle>
                            </g>
                        </g>
                    </g>
                </g>
            </g>
        </g>
    </g>
</svg>