<?xml version="1.0" encoding="UTF-8"?>
<svg width="172px" height="28px" viewBox="0 0 172 28" version="1.1" xmlns="http://www.w3.org/2000/svg" xmlns:xlink="http://www.w3.org/1999/xlink">
    <!-- Generator: Sketch 52.5 (67469) - http://www.bohemiancoding.com/sketch -->
    <title>app.component</title>
    <desc>Created with Sketch.</desc>
    <g id="Page-1" stroke="none" stroke-width="1" fill="none" fill-rule="evenodd">
        <g id="Artboard-Copy-12" transform="translate(-613.000000, -238.000000)" fill-rule="nonzero">
            <g id="Group" transform="translate(296.000000, 89.000000)">
                <g id="Group-10" transform="translate(297.000000, 57.000000)">
                    <g id="app.component" transform="translate(20.000000, 92.000000)">
                        <path d="M0,0.159259259 L2.62777778,0.159259259 L2.62777778,12.247037 C2.62777778,15.1137037 4.48314815,16.7859259 7.34185185,16.7859259 C10.2005556,16.7859259 12.1196296,15.1137037 12.1196296,12.1992593 L12.1196296,0.159259259 L14.7474074,0.159259259 L14.7474074,12.247037 C14.7474074,16.4116667 11.7453704,19.1987037 7.3737037,19.1987037 C3.00203704,19.1987037 0,16.4116667 0,12.247037 L0,0.159259259 Z" id="Shape" fill="#231F20"></path>
                        <path d="M20.4966667,0.159259259 L23.2598148,0.159259259 L27.5518519,10.2881481 C27.9738889,11.3233333 28.4835185,12.8044444 28.4835185,12.8044444 L28.5312963,12.8044444 C28.5312963,12.8044444 29.0409259,11.3233333 29.462963,10.2881481 L33.755,0.159259259 L36.5181481,0.159259259 L38.0311111,18.8801852 L35.4272222,18.8801852 L34.5035185,7.07907407 C34.4238889,5.94037037 34.5035185,4.32388889 34.5035185,4.32388889 L34.4557407,4.32388889 C34.4557407,4.32388889 33.8664815,6.04388889 33.4444444,7.07907407 L29.677963,15.5118519 L27.3368519,15.5118519 L23.6261111,7.07907407 C23.2040741,6.07574074 22.6227778,4.26814815 22.6227778,4.26814815 L22.567037,4.26814815 C22.567037,4.26814815 22.567037,5.94037037 22.5112963,7.07907407 L21.6114815,18.8801852 L18.9837037,18.8801852 L20.4966667,0.159259259 Z" id="Shape" fill="#231F20"></path>
                        <path d="M42.5938889,0.318518519 L43.7325926,0.318518519 L43.7325926,12.462037 C43.7325926,15.9657407 46.01,18.1077778 49.5137037,18.1077778 C53.0174074,18.1077778 55.3187037,15.9657407 55.3187037,12.4062963 L55.3187037,0.318518519 L56.4574074,0.318518519 L56.4574074,12.5177778 C56.4574074,16.6027778 53.6225926,19.1987037 49.5375926,19.1987037 C45.4525926,19.1987037 42.5938889,16.6027778 42.5938889,12.5177778 L42.5938889,0.318518519 Z" id="Shape" fill="#231F20"></path>
                        <path d="M69.875,0 C74.2785185,0 76.5081481,2.33314815 76.5081481,2.33314815 L75.8153704,3.18518519 C74.1602584,1.80107131 72.0642584,1.05532465 69.9068519,1.08296296 C65.3440741,1.08296296 61.8722222,4.6662963 61.8722222,9.46796296 C61.8722222,14.2696296 65.2962963,18.1077778 69.9864815,18.1077778 C72.3285593,18.1194226 74.5827224,17.2166145 76.2692593,15.5914815 L76.9859259,16.3877778 C75.1225806,18.2231104 72.6016579,19.2354945 69.9864815,19.1987037 C64.5716667,19.1987037 60.6777778,14.8509259 60.6777778,9.46796296 C60.6777778,4.085 64.6512963,0 69.875,0" id="Shape" fill="#231F20"></path>
                        <polygon id="Shape" fill="#FFB71B" points="0.00796296296 23.5385185 0.00796296296 27.1138889 22.145 27.1138889 24.3746296 23.5385185"></polygon>
                        <polygon id="Shape" fill="#CE0E2D" points="54.5383333 23.5385185 52.3087037 27.1138889 76.6833333 27.1138889 76.6833333 23.5385185"></polygon>
                        <polygon id="Shape" fill="#231F20" points="27.7827778 23.5385185 25.7362963 27.1138889 48.6696296 27.1138889 51.1301852 23.5385185"></polygon>
                        <polygon id="Rectangle-path" fill="#231F20" points="84.8533333 0.29462963 85.2992593 0.29462963 85.2992593 27.0501852 84.8533333 27.0501852"></polygon>
                        <path d="M93.8833333,9.38037037 C94.2974676,9.76940694 94.8367098,9.99809081 95.4042593,10.0253704 C95.660619,10.0542966 95.9174964,9.97562764 96.1136936,9.80810544 C96.3098908,9.64058323 96.4278411,9.39920689 96.4394444,9.14148148 C96.4394444,7.85148148 93.5488889,8.13018519 93.5488889,6.29074074 C93.5749958,5.81116786 93.7951092,5.36286002 94.1585984,5.04893753 C94.5220876,4.73501505 94.9976607,4.58250267 95.4759259,4.62648148 C96.0939234,4.60488004 96.6971454,4.81828407 97.1640741,5.2237037 L96.7818519,5.91648148 C96.4173372,5.60275104 95.9565907,5.42294753 95.4759259,5.40685185 C95.2171174,5.37781488 94.9574009,5.45304745 94.7541833,5.61592037 C94.5509657,5.77879329 94.4209819,6.01589414 94.392963,6.27481481 C94.392963,7.50907407 97.2835185,7.18259259 97.2835185,9.11759259 C97.2748876,9.59885091 97.0649936,10.0544734 96.7048216,10.3737856 C96.3446497,10.6930977 95.867158,10.8468801 95.3883333,10.7977778 C94.6507797,10.8033107 93.940937,10.5170838 93.4135185,10.0014815 L93.8833333,9.38037037 Z" id="Shape" fill="#231F20"></path>
                        <polygon id="Shape" fill="#231F20" points="100.086481 5.45462963 98.04 5.45462963 98.04 4.73 102.969074 4.73 102.969074 5.45462963 100.922593 5.45462963 100.922593 10.7022222 100.086481 10.7022222"></polygon>
                        <path d="M105.620741,5.57407407 C105.620741,5.57407407 105.48537,6.11555556 105.381852,6.41814815 L104.712963,8.31333333 L106.528519,8.31333333 L105.907407,6.37037037 C105.803889,6.06777778 105.676481,5.5262963 105.676481,5.5262963 L105.620741,5.57407407 Z M106.743519,9.00611111 L104.497963,9.00611111 L103.900741,10.7261111 L103.040741,10.7261111 L105.190741,4.75388889 L106.066667,4.75388889 L108.216667,10.7261111 L107.348704,10.7261111 L106.743519,9.00611111 Z" id="Shape" fill="#231F20"></path>
                        <polygon id="Shape" fill="#231F20" points="110.334815 5.45462963 108.288333 5.45462963 108.288333 4.73 113.217407 4.73 113.217407 5.45462963 111.170926 5.45462963 111.170926 10.7022222 110.334815 10.7022222"></polygon>
                        <polygon id="Shape" fill="#231F20" points="114.395926 4.73 117.867778 4.73 117.867778 5.45462963 115.232037 5.45462963 115.232037 7.32592593 117.374074 7.32592593 117.374074 8.05055556 115.232037 8.05055556 115.232037 9.96962963 118.011111 9.96962963 118.011111 10.7022222 114.395926 10.7022222"></polygon>
                        <path d="M121.98463,4.73 L122.820741,4.73 L122.820741,8.58407407 C122.795294,8.9856689 122.94774,9.37813534 123.237597,9.6572569 C123.527454,9.93637846 123.925392,10.0739108 124.325741,10.0333333 C124.725056,10.0639863 125.118101,9.92035787 125.403571,9.63946798 C125.689041,9.35857809 125.839006,8.96790658 125.814815,8.56814815 L125.814815,4.73 L126.650926,4.73 L126.650926,8.58407407 C126.441508,9.716714 125.453689,10.5386346 124.301852,10.5386346 C123.150015,10.5386346 122.162195,9.716714 121.952778,8.58407407 L121.98463,4.73 Z" id="Shape" fill="#231F20"></path>
                        <path d="M128.546111,4.73 L129.342407,4.73 L132.002037,8.60796296 C132.217037,8.93444444 132.495741,9.47592593 132.495741,9.47592593 C132.495741,9.47592593 132.44,8.94240741 132.44,8.60796296 L132.44,4.73 L133.276111,4.73 L133.276111,10.7022222 L132.479815,10.7022222 L129.820185,6.82425926 C129.597222,6.49777778 129.318519,5.9562963 129.318519,5.9562963 C129.318519,5.9562963 129.374259,6.48981481 129.374259,6.82425926 L129.374259,10.7022222 L128.577963,10.7022222 L128.546111,4.73 Z" id="Shape" fill="#231F20"></path>
                        <polygon id="Rectangle-path" fill="#231F20" points="135.274815 4.73 136.110926 4.73 136.110926 10.7022222 135.274815 10.7022222"></polygon>
                        <path d="M137.297407,4.73 L138.205185,4.73 L139.686296,8.95037037 C139.789815,9.26888889 139.909259,9.74666667 139.909259,9.74666667 C139.909259,9.74666667 140.028704,9.245 140.140185,8.95037037 L141.637222,4.73 L142.537037,4.73 L140.331296,10.7022222 L139.495185,10.7022222 L137.297407,4.73 Z" id="Shape" fill="#231F20"></path>
                        <polygon id="Shape" fill="#231F20" points="143.731481 4.73 147.19537 4.73 147.19537 5.45462963 144.567593 5.45462963 144.567593 7.32592593 146.70963 7.32592593 146.70963 8.05055556 144.567593 8.05055556 144.567593 9.96962963 147.338704 9.96962963 147.338704 10.7022222 143.731481 10.7022222"></polygon>
                        <path d="M150.937963,7.59666667 C151.228736,7.61651068 151.513598,7.50791807 151.717373,7.2995466 C151.921148,7.09117514 152.023361,6.80396218 151.997037,6.5137037 C152.029861,6.13930556 151.843786,5.77956164 151.519259,5.59 C151.26987,5.47719784 150.995618,5.43057491 150.722963,5.45462963 L149.703704,5.45462963 L149.703704,7.59666667 L150.937963,7.59666667 Z M148.907407,4.73 L150.730926,4.73 C151.110391,4.70319427 151.491484,4.74914158 151.853704,4.86537037 C152.491355,5.13055851 152.893139,5.76831046 152.857037,6.45796296 C152.895368,7.16954806 152.456322,7.81998677 151.782037,8.05055556 C151.853798,8.13307354 151.915296,8.22398302 151.965185,8.3212963 L153.231296,10.6385185 L152.283704,10.6385185 L151.025556,8.24962963 L149.703704,8.24962963 L149.703704,10.6385185 L148.907407,10.6385185 L148.907407,4.73 Z" id="Shape" fill="#231F20"></path>
                        <path d="M154.66463,9.38037037 C155.075972,9.77366985 155.616882,10.0030611 156.185556,10.0253704 C156.441915,10.0542966 156.698793,9.97562764 156.89499,9.80810544 C157.091187,9.64058323 157.209137,9.39920689 157.220741,9.14148148 C157.220741,7.85148148 154.322222,8.13018519 154.322222,6.29074074 C154.348329,5.81116786 154.568443,5.36286002 154.931932,5.04893753 C155.295421,4.73501505 155.770994,4.58250267 156.249259,4.62648148 C156.86985,4.60364343 157.475999,4.81707621 157.94537,5.2237037 L157.563148,5.91648148 C157.196191,5.60161912 156.732553,5.42178371 156.249259,5.40685185 C155.990451,5.37781488 155.730734,5.45304745 155.527517,5.61592037 C155.324299,5.77879329 155.194315,6.01589414 155.166296,6.27481481 C155.166296,7.50907407 158.064815,7.18259259 158.064815,9.11759259 C158.056184,9.59885091 157.84629,10.0544734 157.486118,10.3737856 C157.125946,10.6930977 156.648454,10.8468801 156.16963,10.7977778 C155.42949,10.8045503 154.716716,10.5182956 154.186852,10.0014815 L154.66463,9.38037037 Z" id="Shape" fill="#231F20"></path>
                        <polygon id="Rectangle-path" fill="#231F20" points="159.585741 4.73 160.421852 4.73 160.421852 10.7022222 159.585741 10.7022222"></polygon>
                        <polygon id="Shape" fill="#231F20" points="163.646852 5.45462963 161.60037 5.45462963 161.60037 4.73 166.529444 4.73 166.529444 5.45462963 164.482963 5.45462963 164.482963 10.7022222 163.646852 10.7022222"></polygon>
                        <path d="M169.165185,8.17 L167.158519,4.73 L168.106111,4.73 L169.212963,6.68888889 C169.348294,6.93442524 169.470563,7.18693739 169.579259,7.44537037 C169.579259,7.44537037 169.762407,7.0312963 169.945556,6.68888889 L171.036481,4.73 L172,4.73 L170.001296,8.17 L170.001296,10.7022222 L169.165185,10.7022222 L169.165185,8.17 Z" id="Shape" fill="#231F20"></path>
                        <path d="M96.5190741,16.5231481 C97.3076623,16.4926482 98.0803923,16.7502249 98.692963,17.2477778 L98.262963,17.8688889 C97.7825242,17.4947806 97.1916872,17.2903678 96.5827778,17.2875926 C95.9704715,17.2665297 95.3775225,17.5038775 94.9488684,17.9416197 C94.5202142,18.3793619 94.2953569,18.9771592 94.3292593,19.5888889 C94.2894676,20.1975739 94.5044357,20.7954175 94.9227329,21.2393863 C95.34103,21.6833551 95.9250258,21.9335094 96.535,21.93 C97.1727943,21.912901 97.7786313,21.6471329 98.2231481,21.1894444 L98.2231481,20.3214815 L97.2516667,20.3214815 L97.2516667,19.5968519 L98.9875926,19.5968519 L98.9875926,22.5988889 L98.247037,22.5988889 L98.247037,22.2246296 C98.247037,22.0972222 98.247037,21.9698148 98.247037,21.9698148 C97.7586582,22.4484668 97.099314,22.7122045 96.4155556,22.7024074 C95.6100529,22.6967537 94.8415889,22.3633051 94.2872202,21.7788894 C93.7328515,21.1944736 93.4403909,20.4094948 93.4772222,19.6048148 C93.4576753,18.7872151 93.7716596,17.9968588 94.3469432,17.415567 C94.9222269,16.8342753 95.7092784,16.5120966 96.527037,16.5231481" id="Shape" fill="#231F20"></path>
                        <polygon id="Shape" fill="#231F20" points="100.62 16.6266667 101.456111 16.6266667 101.456111 21.8742593 104.131667 21.8742593 104.131667 22.5988889 100.62 22.5988889"></polygon>
                        <path d="M107.93,21.93 C108.542147,21.91597 109.122232,21.653449 109.536799,21.2028326 C109.951366,20.7522161 110.16472,20.1523037 110.127778,19.5411111 C110.177006,18.722899 109.768451,17.9448689 109.066929,17.5208867 C108.365407,17.0969045 107.48663,17.0969045 106.785108,17.5208867 C106.083586,17.9448689 105.675031,18.722899 105.724259,19.5411111 C105.689564,20.153082 105.904766,20.7529241 106.320583,21.203267 C106.7364,21.6536099 107.317209,21.9158747 107.93,21.93 M107.93,16.5231481 C108.744868,16.5079822 109.531055,16.8239045 110.108853,17.3987001 C110.68665,17.9734958 111.006662,18.7580272 110.995741,19.572963 C110.995741,21.2661248 109.623162,22.6387037 107.93,22.6387037 C106.236838,22.6387037 104.864259,21.2661248 104.864259,19.572963 C104.853338,18.7580272 105.17335,17.9734958 105.751147,17.3987001 C106.328945,16.8239045 107.115132,16.5079822 107.93,16.5231481" id="Shape" fill="#231F20"></path>
                        <path d="M114.714444,21.8742593 C114.992208,21.8985711 115.266581,21.7993175 115.464506,21.602927 C115.66243,21.4065365 115.763816,21.132944 115.741667,20.855 C115.755943,20.5777267 115.650903,20.3075943 115.453066,20.1128005 C115.255228,19.9180067 114.9835,19.8171675 114.706481,19.8357407 L113.376667,19.8357407 L113.376667,21.8742593 L114.714444,21.8742593 Z M114.666667,19.1111111 C114.907497,19.1209091 115.141027,19.027283 115.308391,18.8538338 C115.475754,18.6803845 115.560983,18.44366 115.542593,18.2033333 C115.568902,17.9610367 115.482803,17.7200342 115.308921,17.5492571 C115.135039,17.37848 114.892524,17.2967367 114.650741,17.3274074 L113.416481,17.3274074 L113.416481,19.1111111 L114.666667,19.1111111 Z M112.572407,16.5948148 L114.666667,16.5948148 C115.103456,16.5400726 115.542751,16.6752602 115.87319,16.9661072 C116.203629,17.2569542 116.393485,17.6755357 116.39463,18.1157407 C116.415157,18.6520708 116.127575,19.1530198 115.654074,19.4057407 C116.271651,19.6105293 116.673817,20.2056038 116.633519,20.855 C116.64865,21.3623743 116.437856,21.8503043 116.058047,22.1870578 C115.678239,22.5238114 115.168579,22.6746642 114.666667,22.5988889 L112.52463,22.5988889 L112.572407,16.5948148 Z" id="Shape" fill="#231F20"></path>
                        <path d="M120.057593,17.4468519 C120.057593,17.4468519 119.922222,17.9883333 119.818704,18.2909259 L119.149815,20.1861111 L120.96537,20.1861111 L120.304444,18.3148148 C120.200926,18.0122222 120.073519,17.4707407 120.073519,17.4707407 L120.057593,17.4468519 Z M121.18037,20.8868519 L118.934815,20.8868519 L118.337593,22.5988889 L117.477593,22.5988889 L119.627593,16.6266667 L120.503519,16.6266667 L122.653519,22.5988889 L121.785556,22.5988889 L121.18037,20.8868519 Z" id="Shape" fill="#231F20"></path>
                        <polygon id="Shape" fill="#231F20" points="123.855926 16.6266667 124.692037 16.6266667 124.692037 21.8742593 127.367593 21.8742593 127.367593 22.5988889 123.855926 22.5988889"></polygon>
                        <path d="M133.777778,16.5231481 C134.57836,16.495953 135.358072,16.7815617 135.951667,17.3194444 L135.537593,17.9485185 C135.05424,17.5379383 134.443719,17.3072348 133.80963,17.2955556 C133.207723,17.2859393 132.628776,17.5263418 132.210723,17.9594876 C131.792669,18.3926333 131.572941,18.9797386 131.603889,19.5809259 C131.562184,20.195991 131.776084,20.8010139 132.195104,21.2531937 C132.614124,21.7053736 133.201137,21.9646455 133.817593,21.9698148 C134.510395,21.9511105 135.16928,21.6658787 135.657037,21.1735185 L136.110926,21.7787037 C135.492368,22.3928887 134.649125,22.7267326 133.777778,22.7024074 C132.071422,22.7024074 130.688148,21.3191331 130.688148,19.6127778 C130.688148,17.9064225 132.071422,16.5231481 133.777778,16.5231481" id="Shape" fill="#231F20"></path>
                        <path d="M139.415556,17.4468519 C139.415556,17.4468519 139.280185,17.9883333 139.18463,18.2909259 L138.555556,20.1861111 L140.363148,20.1861111 L139.662407,18.3148148 C139.558889,18.0122222 139.439444,17.4707407 139.439444,17.4707407 L139.415556,17.4468519 Z M140.546296,20.8868519 L138.292778,20.8868519 L137.703519,22.5988889 L136.835556,22.5988889 L138.985556,16.6266667 L139.869444,16.6266667 L142.019444,22.5988889 L141.143519,22.5988889 L140.546296,20.8868519 Z" id="Shape" fill="#231F20"></path>
                        <path d="M143.516481,16.6266667 L144.392407,16.6266667 L145.77,19.8596296 C145.897407,20.1861111 146.06463,20.6559259 146.06463,20.6559259 C146.06463,20.6559259 146.223889,20.1781481 146.359259,19.8596296 L147.728889,16.6266667 L148.604815,16.6266667 L149.090556,22.5988889 L148.294259,22.5988889 L147.99963,18.8324074 C147.99963,18.4740741 147.99963,17.9564815 147.99963,17.9564815 C147.99963,17.9564815 147.816481,18.5059259 147.673148,18.8324074 L146.438889,21.5 L145.722222,21.5 L144.535741,18.8085185 C144.40037,18.49 144.217222,17.9166667 144.217222,17.9166667 C144.217222,17.9166667 144.217222,18.4501852 144.217222,18.8085185 L143.930556,22.575 L143.086481,22.575 L143.516481,16.6266667 Z" id="Shape" fill="#231F20"></path>
                        <path d="M152.888889,19.6605556 C153.204729,19.6875346 153.516376,19.573742 153.740522,19.3495959 C153.964668,19.1254498 154.078461,18.8138032 154.051481,18.497963 C154.078906,18.1869371 153.966636,17.8798173 153.745086,17.6598061 C153.523537,17.439795 153.215642,17.3296677 152.904815,17.3592593 L151.686481,17.3592593 L151.686481,19.6605556 L152.888889,19.6605556 Z M150.85037,16.6266667 L153.032222,16.6266667 C153.53588,16.6012617 154.026756,16.7902438 154.383349,17.1468366 C154.739941,17.5034293 154.928923,17.994305 154.903519,18.497963 C154.930875,19.0042927 154.743355,19.4986681 154.387085,19.8594863 C154.030815,20.2203045 153.538858,20.4140796 153.032222,20.3931481 L151.686481,20.3931481 L151.686481,22.5988889 L150.85037,22.5988889 L150.85037,16.6266667 Z" id="Shape" fill="#231F20"></path>
                        <path d="M156.241296,16.6266667 L157.08537,16.6266667 L157.08537,20.4887037 C157.059549,20.8897304 157.212186,21.2816841 157.502418,21.5596312 C157.79265,21.8375782 158.190835,21.9731312 158.59037,21.93 C158.994946,21.9705189 159.3969,21.8312851 159.689725,21.5491917 C159.98255,21.2670983 160.136688,20.8706208 160.111296,20.4648148 L160.111296,16.6266667 L160.947407,16.6266667 L160.947407,20.4887037 C160.74719,21.6316132 159.754666,22.4653794 158.594352,22.4653794 C157.434038,22.4653794 156.441514,21.6316132 156.241296,20.4887037 L156.241296,16.6266667 Z" id="Shape" fill="#231F20"></path>
                        <path d="M162.826667,21.277037 C163.240801,21.6660736 163.780043,21.8947575 164.347593,21.922037 C164.603115,21.9533595 164.860117,21.8766272 165.05664,21.7103388 C165.253163,21.5440503 165.371375,21.3032939 165.382778,21.0461111 C165.382778,19.7481481 162.492222,20.0268519 162.492222,18.1953704 C162.518445,17.7152029 162.73829,17.2662011 163.10149,16.9510277 C163.46469,16.6358542 163.940187,16.4814605 164.419259,16.5231481 C165.039215,16.4979905 165.644637,16.7150285 166.107407,17.1283333 L165.725185,17.8211111 C165.362448,17.5033765 164.901175,17.320555 164.419259,17.3035185 C164.159205,17.2745635 163.898377,17.3508682 163.694933,17.5154188 C163.491489,17.6799694 163.362345,17.9190832 163.336296,18.1794444 C163.336296,19.4137037 166.226852,19.0792593 166.226852,21.0142593 C166.220428,21.4969142 166.011488,21.9546574 165.651049,22.2757201 C165.290611,22.5967829 164.81185,22.7516138 164.331667,22.7024074 C163.593782,22.7096858 162.883298,22.4232002 162.356852,21.9061111 L162.826667,21.277037 Z" id="Shape" fill="#231F20"></path>
                    </g>
                </g>
            </g>
        </g>
    </g>
</svg>