<?xml version="1.0" encoding="UTF-8"?>
<svg width="442px" height="201px" viewBox="0 0 442 201" version="1.1" xmlns="http://www.w3.org/2000/svg" xmlns:xlink="http://www.w3.org/1999/xlink">
    <!-- Generator: Sketch 52.3 (67297) - http://www.bohemiancoding.com/sketch -->
    <title>Group 14</title>
    <desc>Created with Sketch.</desc>
    <defs>
        <polygon id="path-1" points="0.5985 0.9994 262.348 0.9994 262.348 81.7084 0.5985 81.7084"></polygon>
        <polygon id="path-3" points="0.5985 0.4168 262.348 0.4168 262.348 123.1658 0.5985 123.1658"></polygon>
        <polygon id="path-5" points="0.8274 0.271 237.1864 0.271 237.1864 111.9378 0.8274 111.9378"></polygon>
    </defs>
    <g id="Page-1" stroke="none" stroke-width="1" fill="none" fill-rule="evenodd">
        <g id="Artboard-Copy-13" transform="translate(-885.000000, -126.000000)">
            <g id="Group-18" transform="translate(96.000000, 8.000000)">
                <g id="Page-1" transform="translate(716.000000, 0.000000)">
                    <g id="Group-14" transform="translate(73.000000, 117.000000)">
                        <g id="Group-10" transform="translate(179.000000, 76.000000)">
                            <g id="Group-30" transform="translate(0.000000, 43.729000)">
                                <mask id="mask-2" fill="white">
                                    <use xlink:href="#path-1"></use>
                                </mask>
                                <g id="Clip-29"></g>
                                <polygon id="Fill-28" fill="#EC9135" mask="url(#mask-2)" points="262.3485 2.6664 101.1795 81.7084 0.5985 38.0834 0.5985 36.2494 262.3485 0.9994"></polygon>
                            </g>
                            <g id="Group-33" transform="translate(0.000000, 0.729000)">
                                <mask id="mask-4" fill="white">
                                    <use xlink:href="#path-3"></use>
                                </mask>
                                <g id="Clip-32"></g>
                                <polygon id="Fill-31" fill="#F19C38" mask="url(#mask-4)" points="262.3485 43.9998 101.1815 123.1658 0.5985 79.2498 161.0985 0.4168"></polygon>
                                <g id="Group-2" mask="url(#mask-4)">
                                    <g transform="translate(53.000000, 33.000000)">
                                        <path d="M68.4628,65.0121 L155.3408,20.6481 C159.0378,18.7611 159.9328,14.9951 158.0268,11.2261 C157.3888,9.9631 156.4368,8.6991 155.1688,7.5051 L153.7108,6.1311 C148.5948,1.3111 140.3418,-0.5329 135.3318,2.0521 L47.0938,47.5941 C42.2608,50.0881 42.8758,55.7521 48.4118,60.2071 L49.9908,61.4781 C55.4568,65.8761 63.7018,67.4441 68.4628,65.0121" id="Fill-46" fill="#FCEE9B"></path>
                                        <path d="M165.914,15.2494 C165.138,15.7574 163.722,16.4864 161.532,16.7134 C160.509,16.8194 159.554,16.7914 158.764,16.7184 C157.572,13.6644 156.374,10.5934 155.169,7.5054 C155.694,8.0504 156.41,8.7804 157.284,9.6294 C161.038,13.2794 162.442,14.0214 163.258,14.3914 C163.887,14.6754 164.776,15.0144 165.914,15.2494" id="Fill-48" fill="#FCEE9B"></path>
                                        <polygon id="Fill-50" fill="#F19C38" points="52.5341 55.7943 143.7621 8.9033 141.2451 6.5613 49.8391 53.6063"></polygon>
                                        <polygon id="Fill-52" fill="#F19C38" points="60.9179 62.5999 128.9879 27.7579 126.4649 25.4899 58.2639 60.4459"></polygon>
                                        <path d="M78.7314,17.3641 L24.2874,47.4691 C20.2904,49.6791 14.3804,49.1971 9.5224,46.6631 C7.9324,45.8351 6.4644,44.7901 5.2204,43.5551 L3.8084,42.1561 C-0.9656,37.4191 -0.6076,31.6061 4.3724,29.0051 L55.4434,2.3271 C59.8644,0.0181 68.0264,0.9801 73.9324,4.5911 L75.6744,5.6561 C81.9174,9.4711 83.4184,14.7721 78.7314,17.3641" id="Fill-54" fill="#FCEE9B"></path>
                                        <path d="M12.7802,53.8314 C13.8002,53.3954 15.3622,52.5394 16.4162,50.9354 C16.9042,50.1904 17.1682,49.4614 17.3132,48.8454 C13.1982,47.0454 9.1682,45.2814 5.2202,43.5554 C5.8042,44.0784 6.5882,44.7944 7.4942,45.6634 C11.4962,49.5004 12.1192,50.7844 12.3912,51.5184 C12.6032,52.0884 12.8092,52.8784 12.7802,53.8314" id="Fill-56" fill="#FCEE9B"></path>
                                        <polygon id="Fill-58" fill="#F19C38" points="69.0956 8.8724 13.5366 38.7744 11.1316 36.5344 66.2516 7.0724"></polygon>
                                    </g>
                                </g>
                            </g>
                        </g>
                        <g id="Group-13">
                            <polygon id="Fill-23" fill="#EC9135" points="237.1864 35.7464 76.4714 114.0424 0.8274 81.6244 0.8274 79.6244 237.1864 33.8744"></polygon>
                            <g id="Group-27" transform="translate(0.000000, 0.729000)">
                                <mask id="mask-6" fill="white">
                                    <use xlink:href="#path-5"></use>
                                </mask>
                                <g id="Clip-26"></g>
                                <polygon id="Fill-25" fill="#F19C38" mask="url(#mask-6)" points="237.1864 33.1458 76.4314 111.9378 0.8274 78.8958 160.6194 0.2708"></polygon>
                            </g>
                            <path d="M154.14,41.0355 C163.23,50.6995 159.427,63.6655 146.15,70.5345 C132.873,77.4035 113.924,76.2095 103.23,67.3755 C91.817,57.9485 94.096,43.5615 109.034,35.8325 C123.973,28.1045 144.439,30.7225 154.14,41.0355 Z" id="Stroke-36" stroke="#FCEE9B"></path>
                            <path d="M113.0844,50.3441 L106.0694,53.9731 L134.2704,65.8891 L143.4034,61.1641 L118.5584,50.2021 C116.8754,49.4591 114.6884,49.5141 113.0844,50.3441" id="Fill-38" fill="#FCEE9B"></path>
                            <path d="M135.1151,38.9442 L141.3971,55.7832 L127.7151,49.6112 L126.3311,46.1802 C125.7921,44.8442 126.4971,43.4032 128.1011,42.5732 L135.1151,38.9442 Z" id="Fill-40" fill="#FCEE9B"></path>
                        </g>
                        <g id="Group-12" transform="translate(92.000000, 82.000000)">
                            <g id="Group-9">
                                <polygon id="Fill-19" fill="#EC9135" points="145.1864 33.4163 71.2654 69.7493 0.6814 39.4993 0.6814 37.4993 145.1864 31.4163"></polygon>
                                <polygon id="Fill-21" fill="#F19C38" points="145.1864 31.4163 71.2654 67.7493 0.6814 37.4993 74.7654 0.9163"></polygon>
                            </g>
                            <path d="M47.4071,32.8954 C45.6281,33.8644 45.8211,35.4214 47.7911,36.3724 L72.2111,48.1654 C74.0881,49.0714 77.0101,49.0554 78.7471,48.1314 L100.9661,36.3124 C102.7341,35.3714 102.6821,33.8424 100.8401,32.8974 L76.8551,20.5884 C74.9111,19.5904 71.8651,19.5774 70.0611,20.5594 L47.4071,32.8954 Z M66.3811,28.9084 L85.0621,28.9344 L85.6211,38.5184 L80.8041,36.1124 L80.4991,31.3904 L71.3401,31.3854 L66.3811,28.9084 Z M63.2801,30.7174 L68.2481,33.1824 L68.6241,37.7804 L77.4891,37.7664 L82.3161,40.1614 L64.1171,40.2054 L63.2801,30.7174 Z" id="Fill-42" fill="#FCEE9B"></path>
                        </g>
                        <g id="Group-11" transform="translate(182.000000, 40.000000)">
                            <polygon id="Fill-15" fill="#EC9135" points="141.8065 32.7913 71.2645 67.4993 0.6815 37.2493 0.6815 35.6243 141.8065 31.1243"></polygon>
                            <polygon id="Fill-17" fill="#F19C38" points="141.8065 31.1248 71.1005 66.0418 0.6815 35.6248 71.3895 0.7078"></polygon>
                            <path d="M90.0116,33.0306 L94.3616,30.6516 L97.6116,32.2396 L93.2406,34.6556 L98.2106,37.1546 L95.2406,38.8226 L90.2906,36.2846 L85.8126,38.7596 L82.6186,37.0736 L87.0756,34.6356 L82.3736,32.2246 L85.2876,30.6556 L90.0116,33.0306 Z M66.6066,40.7196 L86.1466,43.9276 L71.9746,51.8846 L66.6066,40.7196 Z M65.6116,22.9036 C69.1336,21.1096 74.7316,21.0596 78.3176,22.8116 C81.9896,24.6066 82.1396,27.5876 78.5376,29.4996 C74.8926,31.4356 69.0076,31.4336 65.4166,29.5176 C61.9116,27.6486 62.0486,24.7186 65.6116,22.9036 Z M42.8486,34.4996 L56.2626,27.6656 L68.9686,34.5796 L55.2166,41.8816 L42.8486,34.4996 Z" id="Fill-44" fill="#FCEE9B"></path>
                        </g>
                    </g>
                </g>
            </g>
        </g>
    </g>
</svg>