<?xml version="1.0" encoding="UTF-8"?>
<svg width="172px" height="29px" viewBox="0 0 172 29" version="1.1" xmlns="http://www.w3.org/2000/svg" xmlns:xlink="http://www.w3.org/1999/xlink">
    <!-- Generator: Sketch 52.5 (67469) - http://www.bohemiancoding.com/sketch -->
    <title>mc_horiz_rgb</title>
    <desc>Created with Sketch.</desc>
    <g id="Page-1" stroke="none" stroke-width="1" fill="none" fill-rule="evenodd">
        <g id="Artboard-Copy-12" transform="translate(-1208.000000, -237.000000)" fill-rule="nonzero">
            <g id="Group" transform="translate(296.000000, 89.000000)">
                <g id="Group-Copy-2" transform="translate(893.000000, 57.000000)">
                    <g id="mc_horiz_rgb" transform="translate(19.000000, 91.000000)">
                        <path d="M39.1220664,23.1787454 C35.0275327,23.1703588 31.5093468,20.2702577 30.7197485,16.2525705 C29.9301501,12.2348832 32.0891422,8.21904318 35.8759678,6.66172857 C39.6627933,5.10441397 44.022343,6.43953365 46.2876753,9.8503321 L50.1402214,6.01682657 C46.9736003,1.93522937 41.8121971,-0.0645003363 36.7222247,0.818169208 C31.6322523,1.70083875 27.445528,5.32165926 25.8380812,10.2311439 C26.0931532,7.33675572 27.2496779,4.59528159 29.144797,2.39276753 L29.144797,1.07896679 L23.5976384,1.07896679 L14.7120295,15.9814022 L14.6295203,15.9814022 L5.71217712,1.07896679 L0,1.07896679 L0,28.262583 L5.79468635,28.262583 L5.79468635,12.4842804 L6.00413284,12.4842804 L14.4264207,26.4918081 L15.3022878,25.1780074 L22.918524,12.4842804 L23.1279705,12.4842804 L23.1279705,28.262583 L29.1321033,28.262583 L29.1321033,24.3783026 C31.9527042,27.2612498 35.8821299,28.7837272 39.9088294,28.5538039 C43.9355289,28.3238806 47.6661141,26.3640188 50.1402214,23.1787454 L46.2876753,19.3325461 C44.6961164,21.7360693 42.0047699,23.1806716 39.1220664,23.1787454 Z" id="Shape" fill="#51237F"></path>
                        <path d="M68.4001476,0.844132841 L72.2082657,0.844132841 L72.2082657,11.9701845 L69.5933579,11.9701845 L69.682214,3.64309963 L67.2767528,11.9701845 L65.3726937,11.9701845 L63.0053137,3.64309963 L63.0941697,11.9701845 L60.479262,11.9701845 L60.479262,0.844132841 L64.2873801,0.844132841 L66.3754982,8.01608856 L68.4001476,0.844132841 Z M85.4478229,6.40398524 C85.4846282,9.64636537 82.8859964,12.3046704 79.6436162,12.3414758 C76.4012361,12.3782812 73.742931,9.7796495 73.7061255,6.53726937 C73.6728253,3.29488916 76.2742988,0.639425582 79.516679,0.606125461 C82.7590592,0.57282534 85.4145228,3.17429876 85.4478229,6.41667897 L85.4478229,6.40398524 Z M82.604428,6.40398524 C82.604428,4.96324723 81.6270111,3.1099631 79.583321,3.1099631 C78.748168,3.12622371 77.9549888,3.47912522 77.3837645,4.08859047 C76.8125402,4.69805571 76.5117045,5.51240853 76.5495203,6.34686347 C76.5028146,7.19448183 76.8032128,8.02458498 77.3815392,8.64601636 C77.9598655,9.26744775 78.7662707,9.62664269 79.6150554,9.64088561 C81.6270111,9.68531365 82.604428,7.85107011 82.604428,6.42302583 L82.604428,6.40398524 Z M93.6670111,7.61623616 L89.4019188,0.844132841 L86.9520295,0.844132841 L86.9520295,11.9701845 L89.6748339,11.9701845 L89.6113653,5.26789668 L93.8637638,11.9701845 L96.3263469,11.9701845 L96.3263469,0.844132841 L93.6035424,0.844132841 L93.6670111,7.61623616 Z M97.8495941,3.33210332 L100.045609,3.33210332 L100.045609,11.9701845 L102.889004,11.9701845 L102.889004,3.33845018 L105.065978,3.33845018 L105.065978,0.844132841 L97.8495941,0.844132841 L97.8495941,3.33210332 Z M110.778155,5.6296679 L110.778155,7.90184502 L114.097565,7.90184502 C113.954788,8.42077941 113.630471,8.87121928 113.183616,9.17121771 C112.667152,9.51305915 112.057261,9.68604641 111.438229,9.66627306 C110.041919,9.66627306 108.385387,8.65712177 108.385387,6.32782288 C108.33659,5.49113059 108.633923,4.67117415 109.207662,4.06022561 C109.781401,3.44927707 110.581083,3.10107495 111.419188,3.09726937 C112.110158,3.09214502 112.778045,3.34571566 113.291513,3.80811808 C113.523567,4.02619215 113.720529,4.27881642 113.875424,4.55704797 L117.048856,4.55704797 C116.235566,2.19283189 114.001798,0.613348359 111.501697,0.634686347 C109.948345,0.579759543 108.438919,1.15600926 107.317363,2.23212909 C106.195807,3.30824891 105.557662,4.79256787 105.548339,6.34686347 C105.543015,7.90869621 106.166329,9.40698607 107.277858,10.5041883 C108.389387,11.6013906 109.895637,12.2052161 111.457269,12.179631 C113.764227,12.2128025 115.87904,10.8987924 116.871144,8.81579336 C117.281295,7.81075418 117.457108,6.72548797 117.38524,5.64236162 L110.778155,5.6296679 Z M130.453432,6.39763838 C130.490237,9.64001859 127.891605,12.2983238 124.649225,12.3351292 C121.406845,12.3719345 118.74854,9.77330272 118.711734,6.53092251 C118.678434,3.2885423 121.279908,0.633078719 124.522288,0.599778598 C127.764668,0.566478477 130.420132,3.16795189 130.453432,6.4103321 L130.453432,6.39763838 Z M127.610037,6.39763838 C127.610037,4.95690037 126.63262,3.10361624 124.58893,3.10361624 C123.753736,3.12150923 122.961184,3.4760203 122.391142,4.08669378 C121.8211,4.69736727 121.521912,5.51241504 121.561476,6.34686347 C121.51477,7.19448183 121.815169,8.02458498 122.393495,8.64601636 C122.971821,9.26744775 123.778226,9.62664269 124.627011,9.64088561 C126.645314,9.68531365 127.622731,7.85107011 127.622731,6.42302583 L127.610037,6.39763838 Z M137.765018,7.99070111 L135.65786,0.844132841 L131.849742,0.844132841 L131.849742,11.9701845 L134.464649,11.9701845 L134.375793,3.64309963 L136.781255,11.9701845 L138.685314,11.9701845 L141.090775,3.64309963 L141.001919,11.9701845 L143.616827,11.9701845 L143.616827,0.844132841 L139.808708,0.844132841 L137.765018,7.99070111 Z M145.768413,11.944797 L152.064502,11.944797 L152.064502,9.47586716 L148.605461,9.47586716 L148.605461,7.57180812 L151.956605,7.57180812 L151.956605,5.07749077 L148.605461,5.07749077 L148.605461,3.33845018 L152.064502,3.33845018 L152.064502,0.844132841 L145.768413,0.844132841 L145.768413,11.944797 Z M161.845018,6.69594096 C162.221817,6.09340181 162.415824,5.39453413 162.403542,4.68398524 C162.458607,3.51572679 161.957158,2.39040978 161.051661,1.6501845 C160.416974,1.16782288 159.350701,0.850479705 157.611661,0.850479705 L153.974908,0.850479705 L153.974908,11.9701845 L156.767528,11.9701845 L156.767528,3.33845018 L157.821107,3.33845018 C158.225517,3.3359203 158.623618,3.43872658 158.976236,3.63675277 C159.38577,3.92796612 159.623672,4.40377072 159.610923,4.90612546 C159.632179,5.43858472 159.395987,5.94875859 158.976236,6.27704797 C158.44052,6.52330316 157.849999,6.62609752 157.262583,6.57535055 L156.799262,6.57535055 L159.699779,11.944797 L162.63203,11.944797 L160.334465,7.85741697 C160.945072,7.634135 161.472366,7.22869483 161.845018,6.69594096 Z M168.947159,0.844132841 L167.277934,5.28693727 L165.627749,0.844132841 L162.543173,0.844132841 L165.862583,7.92723247 L165.862583,11.9701845 L168.705978,11.9701845 L168.705978,7.92723247 L172,0.844132841 L168.947159,0.844132841 Z" id="Shape" fill="#666666"></path>
                        <path d="M62.0659779,22.6709963 C62.0229864,23.7700369 62.4275195,24.8395322 63.1871029,25.6350015 C63.9466864,26.4304708 64.9963824,26.8839082 66.0962362,26.8916605 C67.5189743,26.8737979 68.8246709,26.1000517 69.5235424,24.8606642 L71.3895203,24.8606642 C70.5729649,27.0568549 68.4579338,28.4974175 66.1152768,28.4529889 C64.0073244,28.5228957 62.0288775,27.4382139 60.9542026,25.6234345 C59.8795278,23.8086552 59.8795278,21.552378 60.9542026,19.7375987 C62.0288775,17.9228193 64.0073244,16.8381375 66.1152768,16.9080443 C68.4731175,16.901327 70.5876807,18.3582509 71.4212546,20.5638376 L69.5171956,20.5638376 C68.8400557,19.2897805 67.5199629,18.4884696 66.0771956,18.4757196 C64.9846646,18.4870387 63.9429144,18.938691 63.1878545,19.7283977 C62.4327946,20.5181043 62.0283027,21.5790565 62.0659779,22.6709963 Z M83.7976384,22.6709963 C83.81867,25.8888396 81.2271422,28.5144665 78.0092989,28.5354982 C74.7914556,28.5565298 72.1658287,25.965002 72.144797,22.7471587 C72.3055155,19.6623591 74.8457726,17.2391209 77.9347188,17.2239543 C81.023665,17.2087876 83.5875952,19.6069643 83.7785978,22.6900369 L83.7976384,22.6709963 Z M82.0268635,22.6709963 C82.0857306,21.1826364 81.3252567,19.7814362 80.0452169,19.0197416 C78.765177,18.2580471 77.1709115,18.2580471 75.8908717,19.0197416 C74.6108318,19.7814362 73.850358,21.1826364 73.9092251,22.6709963 C73.850358,24.1593562 74.6108318,25.5605565 75.8908717,26.322251 C77.1709115,27.0839456 78.765177,27.0839456 80.0452169,26.322251 C81.3252567,25.5605565 82.0857306,24.1593562 82.0268635,22.6709963 Z M86.9520295,17.1365314 L85.1812546,17.1365314 L85.1812546,28.2498893 L90.8934317,28.2498893 L90.8934317,26.6568266 L86.9520295,26.6568266 L86.9520295,17.1365314 Z M93.7939483,17.1365314 L92.0295203,17.1365314 L92.0295203,28.2498893 L97.7416974,28.2498893 L97.7416974,26.6568266 L93.8193358,26.6568266 L93.7939483,17.1365314 Z M98.8333579,28.262583 L105.059631,28.262583 L105.059631,26.6568266 L100.616827,26.6568266 L100.616827,23.3945387 L105.008856,23.3945387 L105.008856,21.8459041 L100.597786,21.8459041 L100.597786,18.6724723 L105.04059,18.6724723 L105.04059,17.1365314 L98.8206642,17.1365314 L98.8333579,28.262583 Z M111.158967,24.0990406 L115.957196,24.0990406 C115.772983,24.896283 115.309115,25.601092 114.649742,26.0856089 C113.908113,26.638066 113.003876,26.928315 112.079262,26.9107011 C110.967102,26.9189058 109.900527,26.4693058 109.12985,25.6674179 C108.359173,24.86553 107.952248,23.7819547 108.004576,22.6709963 C107.968231,21.5703067 108.382474,20.5024239 109.151561,19.71417 C109.920647,18.9259161 110.978011,18.4855159 112.079262,18.4947601 C112.922047,18.4864732 113.745225,18.7490004 114.427601,19.24369 C114.819478,19.5421538 115.160296,19.9022633 115.436753,20.3099631 L117.416974,20.3099631 C116.45568,18.2343162 114.366574,16.915273 112.079262,16.9397786 C109.97131,16.8698718 107.992863,17.9545536 106.918188,19.769333 C105.843513,21.5841123 105.843513,23.8403895 106.918188,25.6551689 C107.992863,27.4699482 109.97131,28.55463 112.079262,28.4847232 C114.37634,28.5153096 116.486921,27.2242759 117.50583,25.1653137 C117.838616,24.3761488 118.007062,23.5274361 118.000886,22.6709963 L111.146273,22.6709963 L111.158967,24.0990406 Z M125.45845,18.7042066 L125.45845,17.1365314 L119.232177,17.1365314 L119.232177,28.2498893 L125.45845,28.2498893 L125.45845,26.6568266 L121.015646,26.6568266 L121.015646,23.3945387 L125.407675,23.3945387 L125.407675,21.8459041 L121.015646,21.8459041 L121.015646,18.6724723 L125.45845,18.7042066 Z" id="Shape" fill="#666666"></path>
                    </g>
                </g>
            </g>
        </g>
    </g>
</svg>