<?xml version="1.0" encoding="UTF-8"?>
<svg width="57px" height="44px" viewBox="0 0 57 44" version="1.1" xmlns="http://www.w3.org/2000/svg" xmlns:xlink="http://www.w3.org/1999/xlink">
    <!-- Generator: Sketch 52.6 (67491) - http://www.bohemiancoding.com/sketch -->
    <title>Group 4</title>
    <desc>Created with Sketch.</desc>
    <g id="Page-1" stroke="none" stroke-width="1" fill="none" fill-rule="evenodd">
        <g id="Artboard-Copy-13" transform="translate(-156.000000, -559.000000)">
            <g id="Group-18" transform="translate(156.000000, 8.000000)">
                <g id="Group-5" transform="translate(0.000000, 546.000000)">
                    <g id="Group-4" transform="translate(0.000000, 5.000000)">
                        <path d="M23.2646307,25.5 L15.750542,43.5 L42.2308202,43.5 L34.2359724,25.5 L23.2646307,25.5 Z" id="Rectangle-Copy" stroke="#979797" fill="#FFFFFF" fill-rule="nonzero"></path>
                        <rect id="Rectangle" stroke="#979797" fill="#FFFFFF" fill-rule="nonzero" x="0.5" y="0.5" width="56" height="37"></rect>
                        <path d="M21,24 L15,19.9911972 L15,19.0088028 L21,15 L21,16.2517606 L16.1581769,19.4683099 L16.1581769,19.5316901 L21,22.7482394 L21,24 Z M25,27 L30.7114428,12 L32,12 L26.2885572,27 L25,27 Z M35,24 L35,22.7482394 L39.8418231,19.5316901 L39.8418231,19.4683099 L35,16.2517606 L35,15 L41,19.0088028 L41,19.9911972 L35,24 Z" id="&lt;/&gt;" fill="#474747"></path>
                    </g>
                </g>
            </g>
        </g>
    </g>
</svg>